# xmcd CD database file
#
# Track frame offsets:
#	150
#	29562
#	48127
#	65485
#	83557
#	111702
#	118127
#	169855
#	197950
#	213870
#	235232
#	244445
#	287610
#
# Disc length: 3904 seconds
#
# Revision: 0
# Processed by: cddbd v1.4PL0 Copyright (c) Steve Scherf et al.
# Submitted via: CDex 1.51
#
DISCID=c20f3e0d
DTITLE=Frank Wunsch - Lee Konitz - into it
DYEAR=1995
DGENRE=Jazz
TTITLE0=Echos d'eric satie (Wunsch)
TTITLE1=Three of Four (Konitz)
TTITLE2=Vision (Wunsch)
TTITLE3=Lage Duets (Konitz,Wunsch)
TTITLE4=Aria (Konitz,Wunsch)
TTITLE5=Insight (Konitz)
TTITLE6=Hidden Starlight (Konitz,Wunsch)
TTITLE7=Love Piano Solo (Wunsch)
TTITLE8=Von und zu Schoenberg (Schoenber,Konitz,Wunsch)
TTITLE9=I Love You (Porter)
TTITLE10=Fuenf Miniaturen (Wunsch)
TTITLE11=Into the Deep (Konitz,Wunsch)
TTITLE12=Allusion Mysterieuse (Konitz,Wunsch)
EXTD=YEAR: 1995
EXTT0=
EXTT1=
EXTT2=
EXTT3=
EXTT4=
EXTT5=
EXTT6=
EXTT7=
EXTT8=
EXTT9=
EXTT10=
EXTT11=
EXTT12=
PLAYORDER=
